<svg xmlns="http://www.w3.org/2000/svg" version="1.1" viewBox="0 0 900 440"><defs><clipPath id="a"><path d="M605.086 677.53h260.392V309.26H605.086v368.27z"/></clipPath></defs><path fill="#fff" d="M0 .342h862.666v448.974H0z"/><path fill="none" stroke="#a99c5d" d="M223.63 44.873h626.973V420.06H223.63z"/><path fill="#ffba5d" d="M112.695 0h129.633v449.974H112.695z"/><path fill="#a99c5d" stroke="#a99c5d" d="M128.136 423.054c-1.71 1.69-3.93 2.56-6.386 2.708-5.132 1.493-14.736-3.543-18.134-1.884-8.515 4.705-14.19 1.35-21.767-1.347-12.67 3.08-23.45 3.42-26.78-6.25-1.84-3.27 3.14-15.79 2.38-17.33-17.17-3.42-35.41-2.55-50.82-9.12-3.62-1.45-.46-4.96 1.96-4.01 14.82 4.61 30.35 5.08 45.3 6.86 2.66.32 5.32.79 8 .94 4.21.25 8.46.1 12.66.45 4.27.36 8.5 1.17 12.76 1.65 49.63-.44 93.98-4.93 139.95-20.1 2.73.12 3.34 4.23 1.34 5.04-25.69 9.15-57.25 11.27-81.53 17.59.35 10.79 3.31 11.72-1.29 21.61-4.23 7.56-13.64-.65-17.69 3.23zm-25.06-22.285c-2.678-.44-18.66-3.06-18.842 1.07.793 4.98-2.417 14.61.932 17.55 1.104.91 2.626 1.72 4.006 1.8 15.765-.63 19.024-10.88 13.903-20.43zm6.243 16.03c1.6 5.88 16.03 5.25 18.05 1.82 3.01-5.76.4-12.41.18-18.28-.04-1.04-.69-1.97-1.66-1.83-4.97 1.66-10.18 1.07-15.06 1.06-3.9 1.81-2.41 13.1-1.52 17.21zm-31.19-16.9c-14.75.37-15.11.77-17.62 13.97-2.6 7.95 13.25 10.65 16.49 6.02.72-1.08 1.81-2.14 1.96-3.31.09-3.06 2.43-16.96-.84-16.7zm54.22.15c.69 5.49 1.42 10.98 2.1 16.47.14 1.18.55 2.06 1.89 1.83 3.57-1.09 8.47.39 7.82-4.01-1.7-3.88-.33-14.39-3.58-15.91-1.92.29-8.56-1.24-8.24 1.6zm-16.11-45.6c-8.4-.59-16.54-.88-24.55-2.33-1-.19-1.77-.86-1.75-2.17.12-5.43-.37-10.31.88-15.2.55-1.58 2.93-2.59 3.45-.96 4.11 7.73 21.48-3.97 23.83 3 .6 3.46 3.46 18.36-1.87 17.65zm-1.58-3.95c.81-3.7.17-7.92.05-11.3-.48-.58-20.65-.12-20.66.73 0 2.05.08 4.12-.08 6.16 2.75 3.12 16.73 7.58 20.68 4.39zM69.84 148.92c.238.27.77.634.953 1.13.886 3.583 1.94 6.13 3.61 9.38.598 1.03.87.794 1.566.18 1.18-2.905 2.35-5.81 3.43-8.75.51-1.41.76-2.96 2.41-3.53 1.38-.186 1.35.57 1.25 1.603-1.78 2.84-3.18 5.85-4.27 9.01-.66 1.906-1.33 3.81-2.03 5.703-.55 1.483-1.28 1.55-2.39.346-2.91-4.107-4.26-8.415-6.06-12.64-.41-.957.36-2.54 1.5-2.44zm62.61 85.5c3.647 3.825 5.25 8.77 7.113 13.154.385.837.57.61 1.1.125 2.833-4.87 4.508-9.6 7.64-13.69.57-.74 1.053-.19 1.008.39-1.9 5.18-4.77 10.41-7.27 15.01-.55.99-1.47 1.81-2.33 2.58-.13.12-1.2-.36-1.27-.68-.71-3.32-2.14-6.27-3.92-9.14-1.2-1.94-1.93-4.18-2.79-6.32-.14-.94.23-1.03.72-1.45zm-67.32 26.21c4.253 3.84 4.224 10.11 7.447 14.1.494.6 1.055.24 1.36-.45 2.2-4.39 3.144-8.786 6.33-12.056 1.23-.375 1.262-.017 1.053.965-3.07 4.57-4.524 9.87-6.773 14.43-.793 1.6-1.816 1.56-2.745.01-2.595-5.28-5.523-10.34-7.563-15.55-.09-1.03.32-1.08.89-1.46zm.637-56.11c.505-.97.643-1.16 1.6-.73 2.217 3.59 4.03 7.484 6.174 10.902.75 1.54 1.07.75 1.74-.294 1.82-4.02 2.39-8.01 5.14-11.04.85-.25.94-.08.94.66-2.5 5.3-3.5 10.75-5.25 15.6-.53 1.02-1.45 1.11-2.4.44-2.93-4.855-5.77-10.67-7.93-15.54zm44.964 1.09c1.03 3.683 3.29 6.834 3.89 10.4 1.12 1.11 1.37 1.09 1.99-.15 2.09-4.75 4.77-9.52 7.65-13.44 1.2-.746 1.19-.27 1.05.775-3.18 6.904-6.3 10.15-8.02 16.575-1.23 1.458-2 1.537-3.18.128-1.59-4.58-3.72-9.38-5.63-13.24-.32-.64-.24-1.514-.21-2.276.94-1.695 1.81.21 2.49 1.225zm10.42-54.92c-4.06 3.87-6.49 10.93-7.89 14.72-.78.87-1.56.68-2.07-.35-2.05-4.895-5.17-9.154-6.7-13.473.41-1.66.74-1.66 1.89-.855 1.52 2.813 2.94 5.68 4.42 8.51.92 1.66 1.36 1.305 2.4.196 1.37-3.767 3.46-6.5 6.22-9.124.94-.546 1.28-.437 1.75.372zm7.02 110.39c-1.03 3.922-5.62 7.13-5.78 10.87-1.41 2.75-3.07 5.32-5.43 2.73-2.24-4.017-2.97-8.18-5.57-11.487-1.26-2.008.44-3.51 1.93-1.81 1.66 3.532 3.53 7.15 4.72 10.66.37 1.09.47.922 1.21.22 2.68-3.59 4.7-7.686 7.04-11.15.87-.686 1.19-.337 1.91-.035zm35.55-1.83c-2.22 4.04-4.79 8.33-7.04 11.763-.51.787-.87 1.684-1.46 2.41-1.15 1.43-2.22 1.307-3.04-.29-2.14-4.166-3.79-7.963-6.14-11.41-.82-1.847 1.4-2.486 1.98-1.397 1.96 3.78 3.44 7.55 5.81 10.732.64.846 1.19-.054 1.52-.533 2.26-3.85 4.58-8.114 6.6-11.61.86-1.1 1.16-.5 1.79.335zm-59.7-21.856c-1.37 4.19-3.35 8.25-5.45 11.88-.61 1.05-1.65 1.79-1.67 3.245-.01.94-1.26 1.06-1.86.06-2.02-5.08-5.29-10.12-7.26-14.53-.35-1.29.26-1.11 1.23-.97 2.5 3.11 3.92 7.13 5.69 10.3 1.14 1.47 1.88 1.49 2.89.05 1.67-3.67 3.23-7.12 4.99-10.42.67-.52.94-.1 1.46.37zm55.46-91.175c-3.35 4.11-5.92 8.87-8.64 13.13-.96 1.51-1.74 1.55-2.96.21-2.44-3.1-3.86-7.26-6.12-9.82-.61-1.87.3-1.81 1.66-1.58 2.26 2.86 3.81 6.12 5.77 8.86.61.84 1.16.45 1.6-.38 2.04-4.4 4.82-8.04 7.7-11.47 1.22-.67 1.35.04.99 1.02zm-56.93 31.85c-2.25 4.36-3.75 8.85-6.13 12.64-1.32 2.2-2.09 2.73-3.86-.18-1.5-3.51-3.11-6.61-4.9-9.66-.07-1.25-.02-2.81 1.33-2.06 2.31 2.37 2.96 5.65 4.05 8.4.75 1.31 1.07 2.28 2.37 1.55 2.45-3.87 3.06-8.37 5.87-11.38.8-.3.96.08 1.28.69zM134 192.7c-1.756-4.29-4.394-7.465-6.506-11.01-.42-1.84.48-1.74 1.752-1.518 1.86 1.68 5.66 11.366 7.5 10.078 2.585-3.943 2.98-9.734 6.096-12.62 1.298-.57 1.225-.182 1 .877-2.425 4.294-5.25 9.21-6.246 13.952-1.393 2.44-2.14 1.85-3.6.23zm-28.627 93.75c-2.63 4.4-4.584 9.355-6.96 13.565-1.588 1.843-2.25 1.514-3.352-.165-2.35-4.18-4.77-8.067-6.98-11.94-.28-1.146.52-.97 1.27-.966 3.02 2.233 4.3 6.157 5.82 9.108.99 2.606 1.84 2.487 3.26.173 1.85-3.213 3.77-5.85 4.79-9.054.83-1.16 1.06-1.62 2.17-.72zm27.94 10.652c-1.398-3.242-2.693-6.527-4.078-9.774-.835-2.276 1.07-2.5 2.23-1.17.915 2.93 2.096 5.853 3.474 8.35.68 1.233 1.56 1.114 2.32-.08 2.28-3.25 4.02-6.42 6.17-9.38 1.17-1.043 1.22-.4 1.28.68-3.12 4.303-5.17 8.49-8.46 12.035-1.68 1.32-1.8.824-2.96-.66zm-18.246-176.48c-.415-.277-.79-.396-.85-.605-.078-.267.005-.688.186-.9.962-1.15 2-2.245 2.98-3.385 1.54-1.79 3.032-3.62 4.58-5.402 1.934-2.222 3.903-4.414 5.855-6.622.08-.083.126-.26.208-.272.652-.12 1.31-.212 1.97-.312-.33.615-.6 1.278-1.017 1.83-.28.36-.86.484-1.14.842-1.57 2.02-3.11 4.065-4.62 6.13-1.4 1.917-2.6 4.005-4.17 5.762-1.08 1.203-2.65 1.97-4.01 2.94zM39.71 168.9c4.764.403-5.71 64.607 3.108 86.152 3.093-.234 6.105-89.032 9.705-87.625 14.455 56.742-31.05 121.62 17.615 161.65 1.815 1.49 4.044 2.49 6.138 3.612 1.567.41 3.377-.58 3.91 1.16 1.126 5.87.423 11.68.75 17.41.098 1.32-1.056 1.57-2.117 1.71-3.73.49-7.53.69-11.16 1.58-4.02 1.47-12.68-.69-15.11 1.91.08 1.53 19.47 3.57 26.61 3.34 2.08-.06 3.18 1.19 3.06 3.27.13 5.39-1.55 10.92.08 15.65-.26 4.8 3.63 12.86 2.72 12.88-6.47-.39-7.18-9.19-7.55-14.27-.45-3.46 1.7-13.74-1.54-13.84-8.65.2-22.2 1.17-25.96 1.17-13.76-2.22-28.69-.96-41.78-4.43-1.54-.24-2.61-1.84-1.94-3.14.22-.43.85-.93 1.29-.92 13.85-1.02 39.7 3.47 40.73 3.18-.07-3-.87-5.77 2.61-7.1 4.33-1.17 8.85-.85 12.97-.87 2.34-.02 2.7-.6 2.31-2.82-.2-1.14-.02-2.37.16-3.53.4-2.71 1-5.39 1.33-8.1.09-.79-.22-1.89-.76-2.44-12.33-9.4-17.14-20.63-21.22-34.86-12.03-11.82-16.04-29.82-19.79-46.55-2.56-11.66-4.03-23.33-5.04-34.96-.02-.18-.03-.37-.04-.55-.75-13.37-.51-26.37.03-39.41.42-5.19 1.35-10.44 2.15-15.19 1.38-10.47 3.8-20.7 6.52-30.48 2.21-12.9 10.18-32.02 9.94-42.94-.59-4.5 1.04-8.71 2.57-12.87 2.31-4.15 5.3-8.33 8.5-11.73 3.71-2.01 5.58-7.3 8.63-8.73 3.85-4.66 9.16-8.54 13.66-11.57 4.89-3.33 11.89-5.07 17.13-6.68 10.93-3.22 22.82-4.29 33.32-3.85 4.46.53 8.59.6 12.66 1.44 7.94 1.5 16.17 4.05 22.47 8.06 5.73 3.64 9.52 8.82 13.56 13.66 5.11 6.73 7.29 12.55 10.35 19.39.78 5.01.52 10.22.56 14.9.43 3.1 1.87 6.34 2.83 8.95 5.01 19.43 8.49 37.82 9.51 55.52 3.8 31.29-3.66 60.4-8.3 92.6-3.38 1.74-16.31 48.11-19.12 41.54-.33-1.22-.7-1.9-1.78-2.32-.22.01-.47.49-.64.8.68 17.39-27.69 33.06-27.81 43.83 1.21 5.06 2.26 10.29 3.05 15.04.4 2.39 1.15 3.12 3.56 3.11 5.4-.17 20.55 3.03 18.85 8.59-.22.66.28 1.51 1.57 1.66 6.53 2.7 47.92-9.1 48.06-4.44.63 3.8-42.27 7.67-48.67 7.66-1.7-.03-3.39.46-5.12-.46-8.08 1.08-15.84 2.58-23.7 2.36-1.61-.01-2.48.98-2.16 2.56.95 7.15-.64 13.36-2.61 19.57-.27.84-.71 1.63-1.1 2.44-1.76 1.74-8.05.06-8.69-1.08-2.06-7.53-4.46-15.5-3.49-23.03-1.77-3.13-20.19-2.05-23.36-1.75-.6 4.78 1.6 29.88-6.62 27.4-.6-.21 1.82-24.04 1.74-28.65-.02-2 .57-2.64 2.54-2.65 10.05 1.01 19.33-1.52 28 1.27 1.51 1.02 1.71 3.19 1.87 4.72 1.35 5.9.18 17.06 4.38 20.9 3.71-6.67 3.07-16.5 3.59-23 .08-.95 1.91-2.45 3.05-2.43 8.67 2.83 20.54-3.34 27.62-2.51-3.32-8.04-24.59-6.22-29.97-4.41-1.13.45-2.23.1-2.3-1.59-1.27-6.92-.39-14.09.61-20.63.28-1.87 1.7-2.94 3.24-3.83 12.25-9.48 27.18-27.13 29.86-41.45.23-22.59 17.67-64 6.28-82.64-1.64 1.29-2.32 3.9-2.97 5.62-1.05 2.77-2.01 5.57-3 8.36-.39 1.09-2.15 1.32-2.96.28-.93-4.19-8.61-17.18-7.48-17.32 6.68 1.47 5.52 10.54 9.36 14.48 2.44-4.98 4.63-10.84 6.65-15.3 2.34-9.99-6.98-36.22-3.37-39.76 3.65 9.18 7.87 31.3 7.99 41.46 3.03 14.93 1.17 43.74 3.26 44.49 1.46-.78 6.02-69.44 5.54-90.53-.56-.96 0-2.95.39-2.75.73.36 1.5.99 1.85 1.71 11.91 6.49-11.48 84.57-1.37 93.46 9.72-17.09 11.07-67.77 8.37-93.61-3.06-17.44-3.16-35.17-7.98-51.99-.14-.47-.52-.86-.79-1.28-.42.31-.97.54-1.23.95-1.26 2.02-2.45 4.08-3.65 6.13-3.19 4.63-7.17 8.55-12 11.15-5.51 2.58-10.81 5.09-16.45 6.66-4.05 1.11-8.11 2.2-12.21 3.14-8.69 1.88-16.23.6-24.49.77-.38.01-.89.61-1.098 1.05-1.16 2.54-2.43 5.05-2.57 7.93-.07 1.45-.9 2.48-2.04 3.22-1.05.68-2.12.77-3.04-.37-2.03-2.52-3.88-5.16-5.19-8.12-1.08-2.46-3.03-3.32-5.61-2.73-3.56.8-7.17.64-10.72-.16-6.18-1.85-12.73-3.19-18.03-6.38-2.54-1.53-5.12-3.02-7.5-4.77-6.98-4.31-10.19-12.45-14.04-18.11-4.86 21.76-11.05 43.85-13.55 64.42-8.2-1.49 4.394 100.12 8.284 87.19 2.53-22.04.59-85.61 3.59-85.73zM74.273 48.03c-2.847 2.078-5.7 4.156-8.464 6.34-.99.725-5.43 4.664-3.34 4.504 6.26-1.398 20.39-13.734 21.72-11.706.49.895-9.27 6.105-13 9.412 2.54 1.678 10.06 1.547 11.14-.305 1.78-2.22 10.7-8.847 10.86-6.947.96.824-6.23 4.74-8.26 7.126-.53 3.392 7.19 5.91 9.25 3.814 1.37-2.602 5-7.994 5.76-6.97.81.648-3.38 5.64-4.35 8.527 4.23 3.742 12.75 13.57 13.85 12.963.78-.55-3.16-17.456-.64-20.62 2.85 4.23 1.97 10.836 3.08 15.467.28 1.198.84.943 1.46.26 1.99-2.202 4.2-4.115 6.99-5.275 2.63-3.312-3.51-10.07-3.53-14.05 5.3.286 4.16 12.54 8.16 11.338 3.63-1.384 6.97-2.213 10.18-3.672-.52-5.373-9.9-9.318-9-10.978 3.44-2.964 8.49 8.942 13.66 9.745 3.85-1.566 10.42-.583 13.38-1.26-1.77-6.402-16.61-6.952-14.83-10.38 5.74.755 14.02 3.965 17.24 9.057 2.41 3.398 9.1 5.43 10.23 4.284 2-1.24-8.76-9.537-12.52-12.233-9.8-4.32-20.33-7.11-30.54-7.16-7.36-.25-14.97-1.33-21.24.23-10.8 3.25-18.61 3.77-27.31 8.5zm38.238 55.023c-2.73 2.798-2.49 8.336-1.71 11.755.24 1.033.52 2.083.97 3.036 4.92 9.616 8.09 6.297 14.6 8.527 1.14.41 1.56-.02 1.81-.96 1.28-7.04 4.42-14.45 5.25-20.65-.28-.43-3.46-3.38-5.24-3.2-5.69.8-10.21.62-15.66 1.51zm66.34-17.583c.43-2.712-4.88-17.81-8.32-14.503-6.81 6.273-13.04 12.717-19.28 18.12-1.42 1.338-.42 1.967 1.01 2.347 8.7-.3 16.88-4.242 25.08-4.555.84-.03 1.57-.3 1.52-1.41zm-22.1-24.57c-1.68-.454-1.9.49-2.08 1.512-2.17 7.102-3.05 18.49-5.25 23.73-.35 1.636.13 1.568 1.36 1.098 6.03-6.223 12.81-12.477 18.6-17.75.83-.75 1.01-1.502.06-2.24-3.7-2.742-8.66-6.892-12.68-6.35zm-5.35 35.545c7.14 3.25 14.86 4.255 21.82 6.802 1.22.454 2.03.205 2.62-.968 1.89-3.76 2.15-7.9 2.83-11.94.06-.33-.63-1.12-.98-1.12-8.68-.94-17.77 4.9-25.74 3.98-1.89.75-1.71 2.11-.53 3.23zm-3.01 1.4l-1.05 1.624c2.84 2.58 11.12 19.76 14.28 18.02 5.12-1.96 8.21-5.65 11.11-9.78-4.15-6.59-17.29-6.35-24.33-9.87zm-7.12 6.558c-.06-.388-.74-1.046-.93-.98-1.64.56-3.49.48-4.84 2.012-1.98 6.294-3.84 13.19-4.97 19.482.63 3.855 9.02.76 11.92.21 1.14-.208 1.12-.873 1.03-1.716-1.28-6.66-1.23-13.08-2.2-19zm2.3-22.17c-.13 2.83 3.68 3.778 4.13 1.8 1.95-7.658 3.74-15.2 5.22-22.368.1-.48-.1-1.342-.42-1.514-.65-.34-1.5-.48-2.24-.42-2.14.16-4.28.38-6.38.75-.62.11-1.58.78-1.63 1.27.38 6.79-.03 14.75 1.34 20.5zM89.24 92.56c5.06-4.676 11.38-9.39 15.49-13.975.224-.254.5-.74.4-.952-1.253-2.668-3.3-4.787-5.464-6.562-.525-.42-1.007-.43-1.7.11-5.223 3.81-5.96 11.07-10.606 14.41-3.002 3-.91 5.57 1.876 6.97zM65.5 99.714c-4.61 3.088-11.275 3.304-15.08 6.153-2.75 3.58 4.8 8.347 7.25 10.86.78.808 1.37.82 1.99-.044 3.47-4.398 6.24-9.676 8.63-14.126-.05-2.08-1-3.68-2.8-2.843zm3.75-13.117c-.046-.156-.114-.51-.25-.83-2.526-6.612-6.88-12.825-10.124-18.506-.483-.85-.894-.75-1.512-.18-2.39 2.18-4.8 4.34-7.2 6.49-.65.58-.6 1.14.04 1.67 5.66 4.56 11.65 8.8 17.33 12.49.95.61 1.68.15 1.72-1.12zm88.666 32.667c-3.69-4.958-7.72-14.664-11.818-17.646-.46-.33-1.413-.346-1.94-.086-.37.182-.558 1.067-.547 1.632.24 6.5 1.27 12.815 2.5 18.998 2.01 2.092 7.98-1.027 10.61-1.825.44-.137.76-.678 1.19-1.075zM77.91 85.434c1.763.025 2.23-.46 2.62-2.442 1.316-6.12 2.444-12.466 4.046-18.264.318-1.142.083-1.354-.967-1.4-2.68-.256-5.2-1.01-7.72-1.228-1.57-.354-1.9-.06-1.83 1.552-.23 6.87.89 13.38 1.81 19.88.2 1.46.58 1.882 2.03 1.902zM60.98 118.24c-.07 1.603.745 2.098 1.618 2.557 2.628 1.382 5.242 2.79 7.887 4.135.484.246 1.317.523 1.59.3 1.686-5.477 1.347-12.41 1.92-17.675.104-.957.432-1.868-.78-2.412-.86-.384-1.614-1.032-2.493-1.322-3.534 4.074-7.128 10.183-9.743 14.418zm22.64 9.05c2.138.16 2.79-.718 1.98-2.592-1.533-5.672-2.898-11.508-4.542-16.815-.425-1.373-1.726-1.056-2.676-1.198-.902-.133-1.317.585-1.424 1.496-.262 4.26-4.962 17.58.303 18.91 3.33 1.2 4.19.25 6.36.2zm55.808-65.21c-.017-.11-.563-.283-.777-.202-2.82 1.07-5.63 2.165-8.42 3.31-.3.125-.72.7-.65.908 2.28 6.49 5.2 12.95 7.73 18.78 1.27 2.58 4.14.13 3.99-1.004-.68-7.89-.77-14.55-1.87-21.792zM49.12 103.923c5.478-1.954 10.952-3.916 16.42-5.897 1.507-.584.76-1.116-.002-1.894-7.31-1.36-13.63-3.973-20.242-5.82-.643-.178-1.185-.1-.962.907 1.195 3.03.36 13.34 4.787 12.7zm64.063-2.872c4.212-1.17 9.073-1.16 12.99-1.41 1.193-.07 1.904-.56 2.028-1.81.07-.64.25-1.28.36-1.92-.2-4.41-17.27-8.07-17.34-4.66.2 2.22-1.79 10.45 1.98 9.82zM65.916 90.52c-5.03-4.49-11.94-8.35-16.462-12.247-1.034-.894-1.412-.754-2.01.475-1.067 2.19-2.163 4.312-2.25 6.874.41 4.275 15.682 6.524 19.356 7.223.318.06.922-.018.978-.176.21-.61.247-1.27.388-2.15zm62.93.43c.185-.068.456-.142.695-.272.04-.018-.02-.385-.13-.46-3.79-5-6.83-10.86-11.51-14.865-4.21-2.132-5.63 5.84-6.07 8.69-.18 4.445 8.76 4.74 13.47 6.09 1.13.322 2.3.532 3.56.816zM89.42 125.312c1.868-.566 3.82-.605 4.86-1.597 1.817-1.734 3.65-3.34 5.808-4.616.24-.14.375-.94.205-1.19-5.022-2.85-14.118-11.71-16.343-10.77-.354.49 1.954 14.1 3.953 16.84.443.53 1.046.92 1.518 1.33zm45.805-37.858c-.092-.41-.108-.595-.175-.758-2.508-5.922-4.816-11.53-6.502-17.265-2.8-4.57-6.408-.02-9.387 1.92-1.06.7-.75 1.04.11 1.64 5.66 3.97 7.89 10.62 12 15.34.44.5 1.55.74 2.23.58.69-.16 1.22-.98 1.74-1.44zM71.437 63.048c-.06-1.688-.332-1.847-1.913-1.263-2.618.835-5.2 1.587-7.523 2.67-.61.29-1.29.648-.7 1.643 3.61 6.378 7.45 12.946 10.39 19.04.19.388.78.576 1.19.857.25-.406.74-.837.7-1.214-.19-1.83-.56-3.65-.78-5.49-.39-5.66-1-11.08-1.34-16.24zm11.67 24.6c.67-.632 1.103-.946 1.416-1.353 4.483-4.52 6.096-11.63 10.27-15.687 1.535-1.456 1.483-2.2-.317-3.2-1.84-1.018-3.873-1.682-5.766-2.613-1.1-.542-1.595-.325-1.92.844-1.488 7.7-3.435 13.04-4.498 20.24-.065.46.446 1 .815 1.76zm24.343 7.647c-.022-1.68-.87-2.196-2.424-1.636-3.696 2.66-9.99 1.19-12.98 4.3-.912.97-1.283 2.44-1.89 3.7 5.114 1.99 10.73 1.91 15.877 1.96.828.01 1.435-.13 1.418-1.16-.03-2.58.01-4.74 0-7.18zm-17.906 8.917c-.686.583-.645 1.274-.597 2 3.854 3.528 8.56 7.064 12.72 9.228.795.406 1.23.5 1.875-.32 1.853-2.357 2.733-5.08 3.28-7.946.05-.256-.288-.832-.492-.854-5.94-.722-11.1-.994-16.786-2.108zm.41-7.706c.615-.277.88-.418 1.158-.517 1.397-.49 2.78-1.04 4.2-1.45 3.536-1.03 7.096-1.96 10.63-2.99 1.278-.37 1.577-1.27 1.226-2.67-.875-2.76-.046-6.06-.82-8.43-5.344 4.89-12.39 9.38-16.49 14.64-.19.26.045.83.096 1.4zM76.396 339.538c-.985-.79-2.192-1.355-3.386-1.804-.704-.265-1.33.025-1.538 1.014-.647 3.1-1.44 6.172-2.106 9.267-.202.937.808 2.024 1.754 2.024 1.268-.01 2.535-.06 3.803-.07.934-.01 1.49-.44 1.586-1.37.39-3.23.7-8.8-.12-9.08zm60.44 10.67c-1.7-4.448-.558-12.772-3.28-15.716-3.83 3.928-2.21 11.434-1.738 15.823.17 2.79 5.285 1.93 5.018-.108zm-28.303-228.035c1.228-.08 1.424-.557.978-1.665-.52-1.297-.88-2.655-1.33-3.98-.12-.374-.31-.726-.48-1.09-.34.2-.78.317-1 .606-1.23 1.66-2.42 3.356-3.61 5.052-.48.694-.35 1.107.58 1.09 1.64-.018 3.31.017 4.88-.013zM80.52 94.998c-.006-1.102-.8-1.84-1.963-1.827-1.018.01-1.915 1.03-1.926 2.19 0 .77 1.15 1.75 2.01 1.71.96-.05 1.89-1.06 1.89-2.06zm60.528-4.395c-.967 1.013-1.835 1.562-2.15 2.336-.486 1.19.514 1.73 1.508 1.89 1.038.17 1.833-.49 1.805-1.45-.02-.81-.63-1.59-1.16-2.79z"/><path fill="#a99c5d" d="M262.167 151.76h-3.92V86.72h3.92v65.04m16.903-25.833h32.105c-.813-4.385-2.73-8-5.75-10.847-6.4-5.628-15.172-5.075-20.692 0-2.992 2.846-4.88 6.462-5.663 10.847m36.374 3.703H278.46c0 5.2 1.626 9.613 4.88 13.243 5.968 5.955 13.562 6.698 20.168 3.093 2.817-1.568 4.966-3.674 6.447-6.316l3.442 1.96c-1.772 3.165-4.385 5.765-7.84 7.798-6.825 3.767-14.867 3.804-20.868-.087-3.08-2.06-5.51-4.83-7.28-8.32-3.37-7.44-3.32-15.88.04-22.65 1.8-3.48 4.25-6.26 7.36-8.32 6.41-3.95 14.1-3.91 19.95-.3 3.02 1.86 5.46 4.37 7.32 7.54 2.23 4.38 3.15 7.94 3.35 12.37m36.07-14.24l-3.62 1.27c-1.93-5.37-8.36-7.94-12.68-4.18-7.14 8.9 6.95 12.38 12.37 15.64 2.52 1.52 4.72 3.55 5.79 6.01.61 1.43.91 3.02.91 4.79 0 4.04-1.44 7.32-4.32 9.85-4.69 3.41-9.7 4.68-14.77 2.97-1.51-.55-2.91-1.35-4.18-2.39-3.02-2.72-4.56-6.5-5.01-10.15l3.87-.56c.41 3.31 1.55 5.81 3.44 7.49 4.3 3.47 10.17 2.96 13.9-.17 2.09-1.83 3.13-4.17 3.13-7.01-.14-3.1-1.81-5.61-4.23-7.1-4.18-2.51-8.79-3.88-12.76-6.44-5.19-3.8-5.33-11.65-.96-15.68 4.51-3.55 10.28-3.57 14.55-.65 2.12 1.45 3.63 3.57 4.53 6.36m55.76 12.29h26.23l-13.15-31.6-13.07 31.59m27.79 3.92H405.4l-8.276 20.17h-4.182L420.212 86l27.358 65.82h-4.19l-8.32-20.17m25.22 20.17h-3.92v-40.3h-3.88v-3.88h3.88v-10.5h3.92v10.455h12.19l-1.31 3.877h-10.89v40.294m22.48-25.83h32.1c-.82-4.386-2.73-8-5.75-10.848-6.4-5.627-15.17-5.074-20.69 0-2.99 2.847-4.88 6.463-5.66 10.848m36.37 3.703h-36.98c0 5.2 1.62 9.61 4.88 13.24 5.96 5.95 13.56 6.7 20.16 3.09 2.81-1.57 4.96-3.68 6.45-6.32l3.44 1.96c-1.77 3.16-4.39 5.76-7.84 7.8-6.83 3.76-14.87 3.8-20.87-.09-3.08-2.06-5.51-4.84-7.28-8.32-3.37-7.45-3.32-15.88.04-22.65 1.8-3.49 4.25-6.26 7.36-8.32 6.41-3.96 14.1-3.91 19.95-.31 3.02 1.86 5.46 4.37 7.32 7.54 2.23 4.38 3.15 7.93 3.35 12.37m16.42 22.13h-3.92V86.72h3.92v65.04m12.98-54.627c0-.96.33-1.786 1-2.484.693-.7 1.535-1.05 2.523-1.05.96 0 1.77.35 2.44 1.04.696.69 1.045 1.52 1.045 2.48 0 .98-.33 1.83-1 2.52-.67.66-1.497 1-2.484 1-.985 0-1.83-.34-2.524-1-.67-.7-1.006-1.54-1.006-2.53m5.49 54.62h-3.92v-44.17H554v44.17m16.91-25.83h32.104c-.81-4.39-2.73-8-5.75-10.85-6.4-5.63-15.17-5.08-20.69 0-2.99 2.84-4.88 6.46-5.66 10.84m36.372 3.7h-36.98c0 5.2 1.626 9.61 4.88 13.24 5.97 5.95 13.562 6.69 20.17 3.09 2.815-1.57 4.964-3.68 6.445-6.32l3.44 1.96c-1.77 3.16-4.38 5.76-7.84 7.79-6.82 3.77-14.86 3.81-20.86-.08-3.08-2.06-5.51-4.84-7.28-8.32-3.37-7.45-3.32-15.88.04-22.65 1.8-3.49 4.25-6.26 7.36-8.32 6.41-3.96 14.11-3.91 19.95-.31 3.02 1.86 5.46 4.37 7.32 7.53 2.23 4.38 3.16 7.93 3.35 12.37m11.41-22.04h4.18c.55 1.91.83 3.86.83 5.83v5.49c2.3-5.44 6.74-9.91 12.03-12.02l4.35 3.09c-6.34.43-11.19 5.01-13.94 9.89-1.62 2.96-2.44 6.02-2.44 9.19v22.7h-3.92v-38.3c0-2.5-.36-4.44-1.09-5.84m139.54 44.17h-4.18c-.49-1.72-.74-3.66-.74-5.84v-5.49c-1.1 3.02-3.29 5.78-6.57 8.27-6.29 4.68-14.12 4.42-19.99.61-3.08-2.06-5.5-4.84-7.27-8.32-3.35-7.43-3.34-15.87 0-22.65 1.77-3.49 4.2-6.26 7.28-8.32 6.69-4.26 14.47-3.61 20.09.52 3.25 2.41 5.41 5.2 6.49 8.36V86.7h3.88v59.204c0 2.495.34 4.44 1.04 5.835m-9.8-8.76c6.35-8.12 6.16-19.57.04-26.71-6.92-7.32-17.25-6.4-23.09 0-6.41 8.13-6.09 19.55 0 26.7 6.91 7.35 17.24 6.46 23.04 0m25.66-17.08h32.12c-.81-4.39-2.73-8-5.75-10.85-6.4-5.63-15.17-5.08-20.69 0-2.99 2.85-4.88 6.46-5.66 10.85m36.37 3.7h-37c0 5.2 1.63 9.61 4.88 13.24 5.97 5.95 13.57 6.7 20.17 3.09 2.82-1.57 4.97-3.68 6.45-6.32l3.44 1.96c-1.77 3.16-4.38 5.76-7.84 7.8-6.82 3.76-14.86 3.8-20.86-.09-12.97-11.13-12.37-30.43.13-39.29 6.42-3.96 14.11-3.91 19.96-.31 6.67 5.85 10.33 12.1 10.67 19.91m-138.78-14.3l-3.61 1.26c-1.92-5.37-8.36-7.94-12.67-4.18-7.134 8.9 6.956 12.37 12.37 15.64 2.52 1.52 4.72 3.55 5.796 6.01.61 1.42.915 3.02.915 4.79 0 4.03-1.44 7.31-4.314 9.84-4.69 3.4-9.702 4.68-14.77 2.96-1.51-.55-2.902-1.35-4.18-2.4-3.02-2.73-4.56-6.51-5.01-10.15l3.878-.57c.407 3.31 1.555 5.81 3.44 7.49 4.3 3.46 10.17 2.96 13.9-.18 2.09-1.83 3.14-4.17 3.14-7.02-.145-3.11-1.814-5.62-4.227-7.1-4.17-2.52-8.79-3.88-12.76-6.45-5.19-3.8-5.33-11.66-.96-15.68 4.52-3.55 10.29-3.57 14.55-.66 2.12 1.45 3.63 3.57 4.53 6.36"/><g fill="#a99c5d" clip-path="url(#a)" transform="matrix(4.916 0 0 -5.981 -2755.861 3375.914)"><path fill="#a99c5d" d="M640.937 525.88c-.145-.364-.318-.835-.516-1.414-.2-.58-.35-1.07-.46-1.467-.14-.08-.27-.02-.38.16.11.22.16.49.16.81 0 .65-.31 1.27-.95 1.85-.63.58-1.64.87-3.01.87-1.45 0-2.62-.43-3.53-1.28-.9-.85-1.36-1.99-1.36-3.4 0-1.09.26-2.1.77-3.05.51-.94 1.07-1.81 1.69-2.61.47-.62.86-1.13 1.17-1.55.8-1.07 1.22-2.11 1.23-3.24 0-.76-.17-1.51-.51-2.23-.34-.73-.79-1.4-1.36-2.01-1.1-1.15-2.34-2.16-3.83-2.83-1.63-.73-3.44-1.09-5.43-1.09-.83 0-1.66.07-2.47.22-1.08.22-1.94.5-2.75 1-.14.09-.23.19-.27.3.34 1.4.64 2.65 1.03 4.02 0 .07.06.11.17.11.11 0 .16-.09.16-.28-.11-.33-.16-.65-.16-.98 0-1.01.42-1.91 1.25-2.69.84-.78 2.12-1.17 3.86-1.17 1.36.03 2.69.25 3.81.76s2.08 1.22 2.86 2.15c.78.92 1.17 2.02 1.17 3.28 0 .62-.14 1.24-.43 1.88-.29.63-.85 1.48-1.68 2.53-.72.94-1.27 1.77-1.65 2.5-.38.72-.57 1.55-.57 2.5 0 .94.21 1.88.63 2.82.42.94.94 1.77 1.55 2.5.65.73 1.41 1.37 2.26 1.84.53.29 1.14.54 1.85.76.71.21 1.5.32 2.37.32.58 0 1.14-.08 1.69-.24.54-.16 1.03-.48 1.46-.95.18-.26.27-.51.27-.76m4.08-11.8c-1.12-.87-2.12-1.9-2.99-3.07-.87-1.18-1.57-2.35-2.09-3.51-.52-1.16-.79-2.01-.79-2.56 0-.29.11-.44.33-.44.22 0 .55.14 1.01.43.45.29.97.68 1.55 1.17.58.49 1.17 1.06 1.77 1.71.6.65 1.15 1.36 1.66 2.12.58.87 1.14 1.79 1.69 2.77.54.98 1.03 1.85 1.47 2.61-1.36.03-2.81-.66-3.59-1.25zm12.01-2.83c-.83-1.02-1.75-2.04-2.74-3.07-.99-1.03-2-1.97-3.01-2.8-1.01-.83-2.02-1.5-3.01-2.01-.99-.51-1.91-.76-2.74-.76-.73 0-1.23.18-1.52.54-.29.37-.44.82-.44 1.36 0 .51.16 1.19.47 2.04.31.85.77 1.76 1.39 2.74-.47-.61-1.01-1.27-1.63-1.95-.62-.69-1.25-1.32-1.9-1.88-.65-.56-1.3-1.03-1.96-1.41-.65-.38-1.23-.57-1.74-.57-.76 0-1.14.38-1.14 1.14 0 .83.33 1.88.98 3.15.66 1.27 1.53 2.49 2.64 3.67 1.11 1.18 2.37 2.19 3.78 3.04 1.42.85 2.88 1.27 4.4 1.27.19.36.35.62.49.76.15.14.29.25.44.32.52.05 1.13.51 1.63.38-.18-.18-.35-.41-.52-.68-.16-.27-.33-.56-.51-.84.58-.04 1.06-.06 1.63-.17.18-.07.27-.16.27-.27 0-.11-.06-.16-.17-.16-.67.15-1.24.21-1.95.22-1.66-2.94-2.89-5.27-3.66-6.99-.78-1.72-1.17-3-1.17-3.83 0-.33.08-.6.25-.82.16-.22.5-.33 1-.33.58 0 1.27.21 2.07.62.79.41 1.65.99 2.55 1.74.91.74 1.84 1.6 2.8 2.58.96.98 1.87 2.01 2.74 3.1.07.11.14.13.22.08.07-.06.11-.14.11-.25m13.86-.44c-.65-.91-1.41-1.82-2.26-2.75-.85-.92-1.76-1.75-2.72-2.47-.96-.73-1.94-1.32-2.93-1.79s-1.96-.71-2.9-.71c-1.02-.01-1.73.4-1.74 1.14 0 .51.18 1.15.54 1.93.36.78.79 1.6 1.28 2.47.49.87.99 1.76 1.52 2.67.52.9.95 1.74 1.28 2.5.07.18.08.33.02.46-.05.12-.17.13-.35.02-.4-.26-.87-.6-1.42-1.04-1.18-.95-2.29-1.91-3.29-2.88-.52-.51-.95-.96-1.27-1.36-.58-.91-1.08-1.74-1.5-2.5-.42-.76-.93-1.61-1.55-2.55-.14-.22-.25-.33-.32-.33-.18 0-.33.2-.46.59-.12.4-.19.65-.19.76 0 .33.23.77.68 1.33l1.5 1.87c.58 1.16 1.18 2.38 1.79 3.67.62 1.28 1.14 2.43 1.58 3.45.11.18.28.27.49.27.22 0 .42-.09.6-.27.18-.18.27-.38.27-.59 0-.15-.26-.64-.79-1.5-.52-.85-1.04-1.84-1.55-2.96.69.61 1.44 1.27 2.26 1.95 1.44 1.19 2.78 2.31 4.3 3.34.56.38.95.57 1.17.57.4-.1.556-.4.6-.71 0-.15-.09-.37-.27-.66-1.15-1.69-2.21-3.36-3.125-5.03-.71-1.61-1.85-3.1-1.875-4.81 0-.43.09-.73.273-.895.18-.16.47-.24.87-.24.61 0 1.34.23 2.17.704.83.47 1.69 1.06 2.58 1.76.89.71 1.73 1.49 2.53 2.36.796.87 1.45 1.71 1.956 2.5.07.11.18.14.33.08.14-.05.13-.19-.056-.4m6.79 4.18c-1.38-.03-2.44-.3-3.18-.786-.74-.49-1.4-1.1-1.98-1.82-1.37-1.7-2.35-3.16-2.93-4.38-.58-1.21-.87-2.11-.87-2.69.04-.31.22-.41.55-.49.254 0 .716.27 1.387.82.67.54 1.41 1.28 2.23 2.2.81.92 1.65 2 2.52 3.23.87 1.23 1.63 2.535 2.29 3.91m24.73 24.94c-.15-.59-.66-1.03-.77-1.58-.07-.25-.2-.38-.38-.38-.77.29-1.52.54-2.334.54-1.31-.02-2.57-.36-3.53-.97-1.02-.65-2.113-1.57-3.29-2.77-1.18-1.194-2.255-2.5-3.234-3.91-2.42-3.48-4.55-6.73-6.38-9.75-1.83-3.03-3.36-5.734-4.59-8.13-1.232-2.39-2.16-4.43-2.77-6.114-.62-1.68-.93-2.92-.93-3.72 0-.61.13-1.12.41-1.52.27-.39.72-.59 1.33-.59.98 0 1.91.31 2.8.927.89.62 1.73 1.39 2.53 2.31 4.09 7.12 4.52 4.36-.243-.87-.82-.89-1.67-1.58-2.56-2.09-.88-.51-1.76-.76-2.63-.76-.98 0-1.7.26-2.17.79s-.71 1.21-.71 2.04c0 .87.17 1.806.51 2.8.35 1 .88 2.22 1.61 3.67-1.016-1.23-1.9-2.265-2.66-3.1-.76-.834-1.43-1.486-2.01-1.956-.58-.47-1.08-.8-1.5-1-.65-.32-1.75-.45-2.14.11-.18.27-.27.63-.27 1.06 0 .33.09.75.27 1.28.18.53.43 1.04.76 1.55 1.34 2.18 2.832 3.95 4.48 5.33 1.65 1.38 3.69 2.29 6.116 2.72 1.74 3.05 3.4 5.78 5 8.21 1.59 2.43 3.33 4.8 5.22 7.12 1.56 1.96 3.11 3.68 4.65 5.16 1.54 1.49 3.13 2.61 4.76 3.37 1.31.49 2.916 1.23 4.27.71.27-.1.41-.25.41-.43m-7.64-25.04c-.44-.59-.87-1.07-1.14-1.732-.04-.11-.11-.17-.22-.17-.04 0-.09.05-.16.16-.35.52-1.09.86-1.74.87-1.29-.13-2.3-.85-3.1-1.58-1.43-1.22-2.44-2.67-3.32-4.05-.47-.74-.92-1.5-1.36-2.28-.63-1.09-.91-1.16-2.12-2.06-.46.87 1.08 3.29 1.72 4.397 1.2 2.33 2.91 4.63 3.89 6.76.18.326.31.49.38.49.536-.18.97-.59.98-1.035-.38-1.01-.85-1.78-1.41-2.66-.2-.34.02-.26.216-.1.93.9 1.93 1.72 2.99 2.42.58.38 1.15.7 1.71.95s1.06.38 1.49.38c.33 0 .61-.08.85-.24.24-.16.36-.34.36-.52m8.69 8.15c0-.43-.19-.87-.57-1.3-.38-.44-.81-.65-1.28-.65-.44 0-.65.22-.65.65 0 .47.17.92.51 1.355.34.44.77.65 1.28.65.47 0 .7-.24.7-.71m2.44-12.12c-.87-1.13-1.866-2.19-2.99-3.21-1.12-1.01-2.155-1.83-3.1-2.44-.72-.47-1.47-.83-2.23-1.09-.96-.31-1.91-.44-2.82-.32-1.09.18-1.62.99-1.63 1.79 0 .47.18 1.11.55 1.93 1.19 2.39 2.31 4.59 3.91 6.82.18.29.5.53.95.73.45.2.75.3.89.3.39-.05.26-.288.19-.49-1.18-3.44-4.14-6.288-4.26-9.13-.01-.73.505-1.24 1.304-1.25.72 0 1.52.242 2.39.73.87.49 1.73 1.08 2.58 1.77.85.682 1.64 1.41 2.36 2.17.73.76 1.29 1.41 1.69 1.96.18.18.28.22.3.13.02-.09-.01-.227-.08-.408m14.3-.1c-.66-.91-1.41-1.82-2.26-2.745-.85-.92-1.76-1.75-2.72-2.47-.96-.73-1.93-1.32-2.93-1.79s-1.96-.71-2.902-.71c-.43 0-.83.06-1.19.19-.36.124-.54.44-.54.95.63 3.35 3.29 6.53 4.62 9.56.07.18.08.336.03.46-.057.13-.175.14-.356.03-1.704-1.164-3.35-2.61-4.7-3.91-.526-.503-.95-.96-1.28-1.354-1.084-1.7-2.05-3.53-3.04-5.05-.147-.22-.256-.32-.33-.32-.18 0-.34.2-.46.6-.37.81.05 1.55.49 2.1 2.28 2.7 3.66 6.21 4.86 9 .3.39.81.27 1.09 0 .18-.19.27-.38.27-.6-.7-1.49-1.68-3.01-2.33-4.46 2.3 1.95 4.16 3.68 6.55 5.3.56.38.95.57 1.165.57.76-.33.61-.9.33-1.356-.4-.58-.89-1.32-1.47-2.23-1.2-2.65-3.5-4.85-3.53-7.61 0-.43.09-.73.27-.89.18-.16.47-.24.87-.24.61 0 1.34.23 2.17.703.836.47 1.696 1.06 2.58 1.76.89.71 1.73 1.5 2.53 2.37.798.87 1.45 1.7 1.957 2.5.08.11.18.14.33.08.14-.05.13-.19-.05-.41m5.1 3.69c0 .47-.24.71-.71.71-2.19-.75-3.32-2.73-4.07-4.35 1.27-.37 2.893.38 3.58 1 .8.75 1.2 1.62 1.2 2.64m5.71-4.24c-1.46-1.75-3.11-3.33-4.98-4.59-1.86-1.19-4.02-2.24-6.28-2.25-1.7 0-2.55.76-2.55 2.28 0 1.016.26 2.11.79 3.29.52 1.18 1.2 2.267 2.04 3.26 1.4 1.496 3.24 3.476 5.59 3.51.82.01 1.35-.373 1.36-.98-.066-1.124-.77-2.13-1.63-2.854-.547-.45-1.236-.83-2.07-1.14-.834-.31-1.83-.46-2.99-.46-.18-.32-.38-.84-.6-1.55-.5-1.63-.5-4.32 1.69-4.37 2.05.1 3.76 1.1 5.16 2.09 1.61 1.2 2.96 2.5 4.07 3.94.24.15.33-.01.38-.16"/></g></svg>
